<?xml version="1.0" standalone="no"?>
<!DOCTYPE svg PUBLIC "-//W3C//DTD SVG 20010904//EN"
 "http://www.w3.org/TR/2001/REC-SVG-20010904/DTD/svg10.dtd">
<svg version="1.0" xmlns="http://www.w3.org/2000/svg"
 width="384.000000pt" height="384.000000pt" viewBox="0 0 384.000000 384.000000"
 preserveAspectRatio="xMidYMid meet">
<metadata>
Created by potrace 1.11, written by Peter Selinger 2001-2013
</metadata>
<g transform="translate(0.000000,384.000000) scale(0.100000,-0.100000)"
fill="#000000" stroke="none">
<path d="M1341 2708 c-18 -18 -29 -26 -26 -17 4 10 1 20 -6 25 -7 4 -15 2 -17
-5 -3 -9 -7 -9 -18 0 -11 9 -18 6 -34 -12 -10 -13 -19 -27 -20 -30 0 -4 -7 -9
-15 -13 -13 -5 -13 -2 1 19 9 13 13 28 10 33 -11 17 -56 10 -73 -12 -12 -17
-14 -18 -9 -3 10 29 -4 40 -25 21 -18 -16 -19 -16 -13 -1 7 18 -11 24 -21 7
-6 -10 -31 -9 -50 1 -5 3 -40 5 -77 5 -64 -1 -68 -3 -92 -34 -21 -28 -23 -38
-14 -65 5 -18 10 -37 12 -44 1 -7 5 -16 9 -19 4 -4 7 -16 7 -26 0 -13 7 -18
26 -18 17 0 28 -6 31 -20 3 -11 9 -18 12 -15 4 2 8 -2 8 -10 0 -20 -31 -13
-65 16 -40 34 -50 57 -53 122 -1 31 -7 57 -12 57 -5 0 -8 -32 -5 -75 3 -71 5
-76 42 -114 30 -31 49 -41 90 -48 41 -7 398 -10 518 -4 17 0 40 13 57 32 33
34 40 69 40 203 0 70 -2 77 -15 64 -10 -10 -15 -42 -17 -114 -2 -60 -8 -109
-17 -124 -20 -37 -24 -8 -7 45 9 26 12 47 6 50 -5 4 -9 15 -9 27 0 16 -5 19
-21 15 -17 -4 -19 -3 -10 6 19 19 13 40 -10 34 -17 -5 -18 -3 -8 9 9 11 9 18
1 26 -9 9 -17 7 -34 -7 -13 -11 -17 -13 -10 -5 16 19 15 43 -2 37 -7 -3 -18
-1 -23 4 -6 6 -21 -2 -42 -23z m-106 -207 c-6 -29 -5 -30 30 -28 27 2 41 10
56 32 19 27 19 20 2 -22 -8 -20 25 -15 36 5 10 16 10 16 11 0 0 -24 16 -31 33
-13 14 13 16 13 19 -2 3 -15 4 -15 20 0 13 14 18 14 27 3 9 -11 6 -15 -11 -20
-33 -9 -476 -7 -482 2 -2 4 2 16 10 27 12 17 14 17 14 2 0 -15 3 -16 21 -6 13
6 19 7 15 1 -12 -20 19 -18 36 2 14 17 17 17 12 4 -9 -26 20 -23 40 5 l16 22
-6 -27 c-9 -40 21 -37 41 3 13 25 19 28 31 19 11 -10 15 -9 20 4 10 27 16 18
9 -13z"/>
<path d="M2083 2716 c-18 -15 -33 -22 -33 -16 0 7 -6 10 -14 7 -8 -3 -17 -1
-19 6 -3 9 -9 9 -25 0 -12 -7 -24 -9 -27 -4 -3 5 -14 7 -24 4 -10 -3 -22 0
-25 6 -17 26 -70 0 -95 -47 -17 -31 -29 -27 -26 8 1 16 -1 28 -5 25 -4 -2 -8
-45 -9 -95 l-2 -90 32 -19 c17 -11 76 -31 131 -46 84 -24 109 -27 171 -21 40
4 137 9 217 12 157 5 166 9 197 68 12 23 14 48 9 110 -4 44 -9 82 -12 85 -17
17 -25 -57 -11 -108 0 -3 -2 -24 -6 -47 -11 -69 -30 -78 -165 -79 -64 -1 -160
-5 -212 -9 -82 -7 -106 -5 -175 14 -44 11 -96 29 -115 38 -33 16 -35 20 -38
70 -2 36 0 52 7 47 6 -3 11 -1 11 5 0 6 5 8 11 4 7 -4 9 -21 6 -40 -3 -19 -1
-36 4 -40 6 -3 8 -12 5 -20 -3 -8 -2 -14 2 -15 4 0 18 -2 32 -4 14 -1 30 2 36
7 8 5 14 3 18 -8 4 -9 9 -14 13 -11 3 4 12 2 19 -4 8 -6 20 -9 28 -6 8 3 16 1
18 -5 3 -8 11 -9 24 -3 10 4 26 7 36 6 9 -1 19 3 23 10 6 8 10 7 16 -2 7 -11
12 -12 28 -2 13 8 21 9 23 2 2 -6 16 -1 31 11 l27 21 0 -21 c0 -18 3 -20 14
-11 11 10 16 9 23 -4 8 -14 13 -13 38 7 16 12 26 18 22 11 -4 -6 -1 -16 7 -22
10 -9 15 -8 19 3 5 12 14 13 61 2 47 -11 58 -11 67 0 6 8 9 14 5 14 -3 0 -1
11 4 25 7 20 6 27 -4 31 -8 3 -12 12 -9 20 3 8 0 14 -6 14 -7 0 -11 8 -9 18 2
11 -3 17 -14 16 -10 -1 -15 2 -12 7 10 17 -6 30 -26 19 -15 -8 -17 -6 -13 10
6 24 -24 29 -33 5 -4 -10 -15 -12 -35 -8 -20 4 -29 2 -29 -8 0 -8 -6 -5 -15 7
-8 11 -14 14 -15 6 0 -8 -8 -10 -24 -6 -17 4 -27 0 -35 -13 -10 -17 -10 -17
-11 0 0 9 -7 17 -15 17 -8 0 -15 -4 -15 -10 0 -5 -4 -10 -9 -10 -4 0 -6 11 -3
25 6 32 -1 31 -33 0 -27 -28 -35 -23 -9 6 9 10 14 25 12 35 -3 15 -7 13 -35
-10z"/>
<path d="M3231 2697 c-26 -26 -33 -29 -41 -17 -7 12 -12 11 -32 -5 -15 -13
-18 -14 -10 -3 16 21 -2 35 -23 18 -11 -9 -15 -9 -15 -1 0 6 -7 11 -15 11 -8
0 -15 -5 -15 -11 0 -6 -14 -8 -36 -4 -22 3 -42 1 -51 -6 -7 -7 -16 -9 -20 -5
-3 3 -16 -2 -27 -11 -20 -17 -20 -17 -7 0 15 19 10 30 -17 33 -9 0 -29 5 -45
9 -24 6 -33 2 -64 -31 -20 -22 -34 -33 -29 -26 4 6 3 12 -1 12 -5 0 -16 -17
-25 -37 -12 -27 -17 -32 -17 -18 -1 12 5 28 11 35 7 8 4 8 -6 -2 -22 -19 -32
-88 -17 -117 22 -41 58 -49 241 -55 96 -4 212 -9 257 -12 93 -5 143 9 164 47
10 19 13 81 7 154 0 6 3 22 7 38 9 34 -11 37 -26 4 -12 -27 -52 -57 -43 -32 7
18 -17 20 -35 3 -10 -11 -11 -10 -6 5 5 10 2 17 -5 17 -7 0 -10 6 -7 14 11 28
-21 24 -52 -7z m143 -105 c2 -18 -1 -32 -6 -32 -6 0 -8 9 -5 20 3 11 1 23 -4
26 -5 3 -7 10 -3 15 9 15 13 7 18 -29z m-604 -29 c0 -7 3 -13 8 -13 4 0 7 -11
7 -25 0 -30 -3 -31 -26 -3 -23 25 -25 55 -4 55 8 0 15 -6 15 -14z m259 -47
c25 -15 55 -15 73 1 15 13 19 13 39 -6 l23 -21 -50 -1 c-27 -1 -65 -2 -84 -3
-48 -2 -91 7 -90 19 1 6 7 9 14 7 7 -1 21 7 32 19 13 15 20 17 23 7 2 -7 11
-17 20 -22z m-209 -1 c0 -8 -4 -15 -10 -15 -5 0 -7 7 -4 15 4 8 8 15 10 15 2
0 4 -7 4 -15z m395 5 c-3 -5 -1 -11 4 -11 11 -2 24 -5 39 -9 4 -1 25 -2 47 -2
30 0 36 -2 23 -9 -16 -9 -148 -9 -148 0 0 6 32 41 37 41 2 0 1 -4 -2 -10z
m-300 -10 c3 -5 -1 -10 -10 -10 -9 0 -13 5 -10 10 3 6 8 10 10 10 2 0 7 -4 10
-10z"/>
<path d="M2299 2336 c-2 -2 -37 -7 -78 -11 -100 -9 -160 -38 -177 -86 -13 -38
-24 -149 -40 -400 -10 -151 16 -232 84 -268 30 -16 50 -20 152 -27 259 -19
447 8 498 72 26 32 59 123 66 179 21 160 27 374 12 423 -15 52 -46 78 -102 87
-27 5 -56 10 -64 11 -8 2 -87 6 -174 9 -88 4 -163 8 -167 10 -3 3 -8 3 -10 1z
m65 -65 c-17 -25 -72 -81 -80 -81 -2 0 7 18 21 40 17 27 21 41 13 46 -17 11
19 33 43 27 19 -5 19 -7 3 -32z m-190 17 c-2 -7 -20 -24 -39 -38 -39 -28 -48
-47 -51 -105 -1 -22 -5 -64 -8 -94 -4 -35 -2 -57 5 -61 8 -5 6 -16 -5 -37 -11
-22 -12 -33 -4 -41 8 -8 7 -22 -5 -52 -8 -22 -12 -42 -7 -45 10 -6 22 9 48 60
24 47 72 113 72 99 0 -5 -22 -45 -50 -89 -46 -73 -62 -115 -42 -115 4 0 24 27
46 60 71 111 46 52 -32 -74 -19 -31 -21 -40 -10 -47 20 -13 30 -11 56 13 l23
23 -19 -46 c-14 -32 -17 -51 -10 -62 5 -10 13 -15 19 -12 5 4 9 -5 9 -19 0
-29 -11 -32 -57 -16 -72 26 -96 111 -80 290 4 36 9 106 13 155 3 50 8 97 10
105 2 8 8 32 13 53 13 54 39 83 86 99 11 3 21 6 22 7 1 1 0 -5 -3 -11z m59 1
c-8 -8 -16 -8 -30 0 -16 9 -14 10 12 11 21 0 26 -3 18 -11z m217 8 c0 -2 -16
-19 -37 -38 -20 -18 -33 -29 -30 -23 4 6 11 23 16 38 7 16 18 26 31 26 11 0
20 -1 20 -3z m205 -12 c92 -11 106 -18 124 -54 23 -47 30 -191 9 -191 -7 0
-31 -24 -53 -54 -22 -30 -41 -53 -43 -51 -6 5 45 92 58 100 15 9 42 66 36 73
-4 3 -20 -10 -37 -29 -33 -37 -29 -22 8 27 48 65 21 73 -37 12 -22 -24 -40
-39 -40 -35 0 9 37 63 59 86 11 12 11 16 1 19 -7 3 -19 -4 -27 -14 -8 -11 -23
-29 -33 -42 -11 -12 -20 -26 -20 -30 0 -5 -8 -17 -18 -28 -10 -10 -25 -30 -35
-44 -9 -13 -17 -20 -17 -14 0 5 19 37 43 70 44 62 77 117 77 129 0 4 -7 5 -14
2 -10 -4 -13 -1 -9 9 11 29 -19 12 -68 -38 l-51 -53 22 43 c12 24 19 47 15 50
-6 6 -54 -47 -55 -61 0 -4 -12 -20 -26 -35 -14 -15 -43 -53 -65 -84 -22 -32
-42 -58 -45 -58 -5 0 108 167 151 224 33 43 33 67 0 36 -14 -13 -28 -20 -32
-17 -3 4 -18 0 -32 -10 -26 -16 -26 -16 -8 4 14 16 15 23 6 29 -7 4 -17 0 -23
-8 -10 -13 -13 -13 -24 -2 -7 8 -8 14 -2 14 5 0 10 9 10 20 0 19 5 19 88 14
48 -3 96 -7 107 -9z m-222 -89 c-10 -13 -20 -22 -22 -20 -4 4 29 44 36 44 2 0
-4 -11 -14 -24z m27 -29 c0 -2 -10 -12 -22 -23 l-23 -19 19 23 c18 21 26 27
26 19z m-200 -31 c0 -2 -8 -10 -17 -17 -16 -13 -17 -12 -4 4 13 16 21 21 21
13z m310 -10 c0 -2 -8 -10 -17 -17 -16 -13 -17 -12 -4 4 13 16 21 21 21 13z
m-11 -63 c-12 -21 -28 -45 -34 -53 -7 -8 -23 -35 -36 -60 -31 -60 -40 -71 -50
-64 -9 5 18 52 88 152 50 69 67 82 32 25z m-19 23 c0 -2 -8 -10 -17 -17 -16
-13 -17 -12 -4 4 13 16 21 21 21 13z m-316 -41 c-9 -14 -18 -25 -21 -25 -5 0
5 18 20 38 17 22 18 13 1 -13z m-54 -2 c-1 -5 -12 -21 -27 -38 -26 -30 -26
-30 11 33 8 13 16 16 16 5z m30 -43 c0 -5 -5 -10 -11 -10 -5 0 -7 5 -4 10 3 6
8 10 11 10 2 0 4 -4 4 -10z m589 -58 c-2 -61 -4 -69 -25 -79 -13 -6 -24 -7
-24 -2 0 5 4 9 9 9 13 0 21 39 10 46 -6 3 -18 0 -27 -8 -9 -7 -4 2 11 20 15
19 30 44 33 58 10 41 15 27 13 -44z m-139 34 c0 -3 -6 -11 -13 -18 -12 -12
-48 -79 -144 -268 -23 -47 -43 -94 -43 -106 0 -18 -5 -20 -57 -18 -32 1 -61 2
-66 3 -8 1 20 61 28 61 3 0 3 -11 -1 -25 -8 -32 21 -36 31 -4 4 11 13 18 20
15 17 -6 37 17 70 84 15 30 52 94 81 142 30 48 54 91 54 95 0 3 7 15 17 25 16
18 23 22 23 14z m-112 -55 c-12 -22 -24 -38 -26 -36 -5 4 37 75 44 75 3 0 -6
-18 -18 -39z m-294 4 c-9 -14 -18 -25 -21 -25 -5 0 5 18 20 38 17 22 18 13 1
-13z m145 -155 c-23 -47 -53 -111 -67 -142 -20 -42 -32 -57 -48 -57 -20 -1
-20 1 8 57 67 132 132 242 140 234 4 -4 -10 -46 -33 -92z m371 -35 c-33 -119
-70 -145 -228 -160 l-62 -7 11 28 c15 41 62 125 66 120 2 -2 -3 -21 -11 -41
-19 -46 -19 -45 -1 -45 9 0 18 7 21 15 4 8 10 15 15 15 4 0 6 -6 3 -14 -6 -17
35 -29 52 -15 8 7 14 7 19 -1 10 -17 25 -12 34 12 5 13 16 23 26 23 12 0 22
14 31 44 7 25 10 49 7 54 -3 5 3 26 13 48 28 57 30 17 4 -76z m-310 76 c-5
-11 -15 -23 -21 -27 -6 -3 -3 5 6 20 20 30 30 35 15 7z m-200 -9 c0 -5 -7 -17
-15 -28 -14 -18 -14 -17 -4 9 12 27 19 34 19 19z m373 -41 c-16 -27 -30 -48
-32 -46 -4 5 48 95 54 95 3 0 -7 -22 -22 -49z m-355 -84 c-28 -58 -55 -104
-60 -101 -13 8 -10 19 17 58 13 20 39 63 57 96 51 96 43 63 -14 -53z m173 5
c-11 -23 -26 -44 -32 -48 -7 -4 1 16 16 45 33 60 46 62 16 3z"/>
<path d="M345 2314 c-54 -15 -83 -21 -160 -30 -56 -6 -60 -8 -50 -24 4 -7 24
-9 53 -5 41 4 43 4 20 -6 -16 -6 -28 -15 -28 -20 0 -6 -4 -8 -9 -4 -15 9 -32
-30 -20 -42 8 -8 7 -13 0 -17 -16 -10 -13 -26 5 -26 8 0 12 -4 9 -10 -3 -5 0
-10 8 -10 10 0 13 -7 10 -21 -3 -12 -1 -24 6 -28 8 -6 9 -15 2 -34 -6 -16 -7
-29 -1 -32 6 -3 5 -16 0 -31 -14 -35 -12 -47 4 -41 13 5 13 0 0 -35 -10 -29
-11 -45 -4 -53 6 -7 8 -25 4 -38 -9 -40 5 -54 28 -26 l19 24 -15 -32 c-9 -18
-16 -37 -16 -43 0 -15 21 -12 40 5 12 11 10 1 -8 -35 -15 -31 -21 -55 -16 -60
12 -12 25 -3 53 38 27 38 36 37 21 -2 -8 -21 -7 -28 6 -33 8 -3 14 -15 12 -26
-2 -11 3 -22 10 -24 6 -3 12 1 12 8 0 7 6 5 15 -7 13 -16 16 -17 25 -4 9 15
11 13 14 -12 2 -24 24 -17 36 12 7 17 17 33 21 36 5 3 2 -11 -8 -31 -15 -31
-15 -37 -3 -45 17 -11 -3 -13 -110 -12 -88 1 -139 19 -159 57 -22 42 -22 43
-27 195 -2 74 -6 169 -9 210 -4 41 -6 114 -7 162 0 49 -3 90 -8 93 -7 4 -12
-70 -12 -180 0 -97 11 -390 17 -428 10 -68 41 -107 95 -124 44 -13 190 -18
260 -8 19 3 60 7 90 10 115 11 167 29 237 82 40 31 46 63 48 263 1 183 -13
272 -54 344 -25 43 -41 58 -88 81 -54 28 -66 30 -188 31 -87 2 -147 -3 -180
-12z m272 -18 c101 -13 158 -63 194 -171 15 -48 21 -415 7 -457 -11 -31 -85
-84 -137 -97 -20 -6 -61 -12 -91 -16 -30 -3 -72 -8 -92 -11 -42 -6 -47 2 -20
37 10 13 36 56 57 94 20 39 42 75 48 80 5 6 -7 -21 -27 -59 -42 -77 -42 -115
-1 -76 l25 24 -6 -32 c-7 -36 1 -40 28 -15 11 9 18 11 18 5 0 -20 27 -13 43
11 12 19 23 23 51 21 40 -3 91 29 69 44 -9 6 -7 15 7 37 25 38 27 70 4 61 -15
-6 -15 -4 0 18 26 41 -2 44 -36 5 -34 -41 -27 -11 8 38 23 30 32 63 17 63 -3
0 -15 -8 -26 -17 -23 -21 -17 -7 19 42 12 17 25 41 29 53 6 21 5 23 -14 13
-11 -6 -26 -19 -33 -29 -33 -45 -36 -29 -4 19 37 55 44 79 25 79 -14 0 -52
-43 -110 -124 -68 -95 -61 -74 11 36 54 82 73 128 53 128 -5 0 -24 -23 -43
-51 -18 -28 -38 -53 -43 -56 -12 -7 11 35 40 73 23 31 30 54 15 54 -4 0 -22
-19 -40 -42 -18 -23 -32 -37 -32 -31 0 6 9 22 20 36 24 30 27 62 6 54 -8 -3
-17 -1 -20 6 -3 7 -18 -4 -38 -28 -18 -21 -43 -51 -56 -65 l-23 -25 18 30 c9
17 32 50 50 74 50 67 41 101 -11 39 -14 -17 -26 -27 -26 -22 0 5 13 25 30 44
16 19 29 38 30 43 1 18 -35 4 -62 -25 -20 -22 -26 -26 -19 -11 14 28 14 33 -3
33 -8 0 -25 -15 -37 -32 -13 -18 -34 -44 -47 -58 -14 -14 -36 -42 -50 -63 -14
-20 -27 -35 -30 -32 -3 2 11 24 30 47 19 24 41 54 48 68 7 14 21 35 32 47 32
35 11 49 -25 16 l-30 -28 21 36 c12 20 22 41 22 48 0 20 -28 12 -35 -10 -5
-16 -9 -18 -15 -9 -6 10 -16 7 -41 -11 -25 -18 -31 -19 -26 -6 12 33 -12 26
-54 -16 -32 -32 -36 -34 -16 -9 15 19 27 40 27 47 0 9 25 17 73 25 39 7 75 13
80 14 13 2 121 -3 164 -8z m-347 -36 c0 -5 -4 -10 -10 -10 -5 0 -10 5 -10 10
0 6 5 10 10 10 6 0 10 -4 10 -10z m137 -88 c-10 -10 -17 -22 -17 -26 0 -11
-30 -39 -36 -34 -4 5 55 78 64 78 3 0 -2 -8 -11 -18z m72 -59 c-13 -16 -28
-32 -33 -38 -4 -5 -3 0 3 12 12 23 39 53 48 53 4 0 -4 -12 -18 -27z m95 -168
c-9 -14 -18 -25 -21 -25 -5 0 5 18 20 38 17 22 18 13 1 -13z m-224 -255 c-6
-11 -13 -20 -16 -20 -2 0 0 9 6 20 6 11 13 20 16 20 2 0 0 -9 -6 -20z"/>
<path d="M3445 2318 c-62 -9 -146 -17 -250 -23 -173 -10 -230 -23 -197 -44 7
-4 10 -69 9 -181 -1 -196 8 -347 23 -382 37 -90 181 -145 350 -135 52 4 106 9
120 12 14 3 41 8 60 11 66 10 153 35 176 51 22 14 35 51 35 98 0 19 -4 60 -16
165 -2 25 -7 86 -10 135 -3 50 -8 112 -11 140 -5 56 -44 129 -77 147 -25 13
-138 17 -212 6z m208 -36 c18 -16 49 -79 53 -108 1 -12 5 -68 9 -125 6 -109 8
-126 20 -224 15 -124 8 -166 -31 -183 -26 -13 -95 -30 -149 -39 -16 -2 -41 -7
-55 -9 -42 -9 -220 -17 -220 -10 0 3 13 27 30 54 23 37 30 42 30 25 0 -37 18
-27 44 25 29 55 55 92 56 76 0 -6 -18 -43 -41 -82 -46 -80 -44 -117 3 -61 17
20 25 25 19 12 -13 -26 2 -41 23 -23 11 8 15 8 18 -2 6 -17 38 8 38 29 0 9 5
11 13 6 21 -13 61 -10 77 7 8 9 11 11 7 4 -11 -17 11 -28 27 -15 8 7 18 11 22
9 5 -1 22 6 37 16 24 16 27 23 21 50 -3 17 -11 34 -17 38 -8 5 -7 14 1 32 7
17 8 27 1 32 -6 4 -6 11 2 20 9 12 9 18 0 27 -9 9 -14 9 -21 -3 -17 -27 -10 1
8 32 12 22 14 32 5 35 -7 2 -9 11 -6 20 5 12 1 14 -18 8 -13 -3 -19 -3 -14 2
17 13 35 62 26 68 -5 2 -16 -7 -26 -21 -24 -37 -48 -64 -58 -64 -11 0 10 38
45 80 46 56 36 81 -14 33 -32 -31 -37 -20 -7 17 52 65 60 80 47 80 -8 0 -36
-21 -62 -47 l-48 -48 23 40 c13 22 27 43 32 46 5 4 4 9 -2 13 -10 7 -26 -9
-101 -94 l-30 -35 17 32 c10 18 21 33 26 33 4 0 7 6 7 13 0 7 9 19 20 27 11 8
20 19 20 24 0 5 11 24 25 42 28 37 30 44 12 44 -7 0 -21 -12 -32 -27 -11 -15
-38 -48 -60 -73 -22 -25 -48 -57 -58 -70 -11 -15 -9 -9 4 15 12 22 38 60 58
85 68 85 65 80 48 80 -9 0 -32 -15 -51 -34 -39 -36 -48 -30 -16 11 25 32 18
43 -11 17 -22 -19 -22 -19 -10 4 16 31 4 42 -18 17 -9 -11 -33 -33 -52 -50
l-34 -30 28 31 c15 16 27 33 27 37 0 13 -27 7 -40 -8 -7 -8 -19 -15 -27 -15
-8 0 -29 -10 -46 -22 l-32 -22 20 24 c54 63 64 69 128 76 34 3 63 8 65 9 10 9
152 -3 165 -13z m-333 -5 c0 -2 -17 -21 -37 -43 -21 -21 -51 -55 -66 -74 -24
-30 -25 -31 -10 -5 10 17 23 36 30 43 19 20 35 53 29 59 -3 3 -21 -4 -41 -16
-20 -11 -34 -17 -30 -12 3 5 1 12 -4 15 -5 4 -13 2 -16 -4 -5 -8 -11 -7 -21 1
-23 19 -8 26 68 28 40 1 75 4 77 7 5 5 21 6 21 1z m-190 -16 c0 -3 -12 -15
-27 -25 -14 -11 -23 -14 -19 -8 4 7 2 10 -7 6 -7 -2 -14 -10 -15 -17 -1 -7 -3
-27 -5 -44 -2 -18 0 -33 5 -33 15 0 7 -65 -12 -100 -11 -19 -20 -33 -20 -30
-1 3 -3 57 -4 121 l-3 117 41 9 c49 11 66 12 66 4z m54 -108 c-20 -32 -54 -83
-75 -114 -37 -55 -61 -141 -42 -152 8 -5 65 64 138 166 73 104 46 51 -45 -86
-49 -75 -90 -141 -90 -147 0 -24 21 -6 55 45 21 30 39 55 41 55 6 0 -24 -58
-46 -90 -23 -34 -15 -58 11 -34 26 24 24 11 -7 -36 -26 -39 -25 -72 1 -50 11
9 12 7 8 -8 -11 -43 18 -30 47 20 17 29 41 69 52 88 41 70 142 219 146 215 2
-2 -11 -25 -30 -51 -44 -63 -119 -191 -164 -281 -20 -40 -39 -73 -42 -73 -3 0
-21 10 -39 23 -52 35 -61 68 -69 238 -4 107 -3 117 14 121 10 3 26 20 35 39 9
19 33 53 54 76 21 23 46 53 56 67 33 48 27 27 -9 -31z m254 -13 c-22 -30 -35
-41 -22 -17 9 16 36 47 41 47 2 0 -6 -13 -19 -30z m-168 -69 c-5 -11 -15 -23
-21 -27 -6 -3 -3 5 6 20 20 30 30 35 15 7z m-62 -90 c-18 -27 -35 -48 -36 -46
-5 4 57 95 64 95 2 0 -10 -22 -28 -49z m256 -15 c-14 -26 -29 -45 -31 -42 -3
3 7 25 23 50 16 25 30 44 31 42 2 -2 -9 -24 -23 -50z m56 0 c0 -2 -8 -10 -17
-17 -16 -13 -17 -12 -4 4 13 16 21 21 21 13z m-166 -73 c-14 -27 -34 -59 -44
-73 -22 -32 -76 -137 -90 -173 -9 -25 -8 -28 7 -25 10 2 36 36 59 78 78 141
104 185 104 174 0 -18 -50 -125 -86 -181 -19 -29 -36 -64 -40 -78 -6 -25 -20
-30 -61 -19 -30 8 -29 20 10 79 17 28 39 64 47 80 19 39 111 185 117 185 2 0
-8 -21 -23 -47z m155 -27 c-41 -63 -64 -83 -39 -34 17 31 74 107 79 103 1 -2
-16 -33 -40 -69z"/>
<path d="M1140 2301 c-38 -7 -35 1 -55 -156 -21 -169 -10 -417 21 -477 19 -36
30 -41 154 -71 91 -22 124 -25 250 -23 145 3 165 6 230 33 72 30 67 23 96 163
14 70 21 331 9 350 -3 4 -7 25 -11 46 -12 75 -66 115 -184 133 -60 10 -453 11
-510 2z m68 -31 c-2 -8 -10 -15 -19 -15 -21 0 -49 -29 -54 -55 -2 -12 3 -30
12 -40 14 -16 20 -17 32 -7 8 7 5 -3 -8 -20 -13 -20 -20 -40 -16 -52 3 -10 -1
-23 -10 -31 -19 -16 -9 -33 16 -25 18 6 16 1 -10 -41 -30 -49 -32 -68 -5 -57
11 4 8 -8 -11 -42 -29 -55 -31 -65 -10 -65 12 0 13 -4 3 -25 -6 -14 -15 -25
-19 -25 -9 0 -5 349 4 385 3 11 8 43 12 72 5 43 10 52 28 55 45 6 58 4 55 -12z
m41 -1 c-15 -9 -32 -2 -24 11 3 5 13 6 21 3 12 -4 13 -8 3 -14z m85 -1 c-4 -5
-15 -8 -25 -5 -11 3 -19 0 -19 -6 0 -6 -3 -7 -6 -4 -4 4 -2 13 5 21 13 15 55
10 45 -6z m106 12 c0 -8 -22 -30 -31 -30 -5 0 -5 30 0 36 4 4 31 -1 31 -6z
m90 1 c9 -1 6 -7 -10 -18 -14 -10 -29 -17 -34 -15 -5 2 -27 -14 -49 -35 -41
-39 -35 -25 17 39 16 20 36 34 45 33 9 -2 23 -4 31 -4z m87 -7 c116 -12 176
-42 188 -97 15 -68 20 -133 19 -222 -1 -130 -11 -186 -30 -178 -8 3 -13 12
-10 20 9 23 -4 36 -22 21 -9 -7 -6 0 6 16 36 46 28 73 -12 39 -18 -16 -17 -14
3 14 25 36 20 63 -7 41 -10 -8 -8 -1 6 19 21 30 29 63 15 63 -3 0 -16 -8 -27
-17 -20 -18 -20 -18 -4 8 13 20 14 29 5 38 -9 9 -16 6 -30 -11 l-18 -23 11 23
c9 18 8 27 0 37 -9 11 -7 22 10 50 19 30 20 36 6 41 -12 5 -13 11 -6 24 6 10
10 23 10 29 0 23 -21 9 -52 -36 -18 -27 -41 -57 -51 -68 -10 -11 -32 -39 -48
-62 -17 -24 -32 -43 -35 -43 -6 0 0 11 36 65 15 22 30 47 34 55 12 25 31 57
44 73 10 12 10 17 1 23 -7 4 -22 -4 -36 -21 -13 -15 -27 -24 -30 -21 -4 4 -22
-8 -41 -26 l-35 -33 23 38 c15 26 19 42 12 49 -6 6 -26 -11 -58 -53 -73 -93
-77 -99 -63 -70 6 14 20 34 30 45 27 29 89 135 89 152 0 8 4 12 10 9 5 -3 31
-8 57 -11z m-245 -74 c-9 -16 -21 -30 -25 -30 -5 0 1 14 13 30 27 39 34 39 12
0z m-4 -80 c-7 -10 -14 -17 -17 -15 -4 4 18 35 25 35 2 0 -1 -9 -8 -20z m312
-94 c0 -2 -8 -10 -17 -17 -16 -13 -17 -12 -4 4 13 16 21 21 21 13z m-342 -56
c-7 -10 -14 -17 -17 -15 -4 4 18 35 25 35 2 0 -1 -9 -8 -20z m308 -58 c-17
-16 -18 -16 -5 5 7 12 15 20 18 17 3 -2 -3 -12 -13 -22z m-353 -19 c-4 -10
-24 -49 -46 -87 -59 -105 -60 -158 -1 -81 36 47 41 39 9 -16 -29 -51 -30 -59
-11 -59 7 0 19 14 27 32 7 17 15 26 17 20 5 -17 22 -15 44 5 21 18 24 4 7 -29
-15 -28 3 -43 25 -21 9 10 23 27 32 38 13 19 13 18 4 -8 -13 -38 -13 -47 3
-47 8 0 22 16 33 35 10 19 23 35 28 35 6 0 5 -5 -2 -12 -14 -14 -16 -62 -2
-53 6 3 10 -1 10 -9 0 -23 27 -20 40 4 8 14 17 19 30 15 13 -4 22 1 30 15 13
25 28 26 26 3 -1 -18 3 -18 69 -9 11 1 28 6 37 10 10 4 26 1 40 -8 14 -9 28
-14 31 -11 4 3 5 2 2 -2 -3 -3 -34 -16 -69 -29 -54 -19 -85 -22 -207 -22 -125
-1 -158 3 -249 26 -98 26 -106 30 -122 60 -16 32 -15 34 8 57 13 13 24 29 24
35 0 5 4 10 9 10 4 0 6 -11 3 -25 -6 -35 15 -32 36 6 30 54 83 139 87 139 3 0
1 -8 -2 -17z m78 -146 c-10 -9 -11 -8 -5 6 3 10 9 15 12 12 3 -3 0 -11 -7 -18z
m422 -55 c-3 -12 -9 -19 -14 -16 -5 3 -4 14 2 25 13 26 20 21 12 -9z"/>
<path d="M1068 1406 c-1 -2 -50 -7 -108 -11 -148 -10 -149 -10 -208 -24 -65
-16 -92 -47 -91 -105 1 -40 15 -101 19 -81 1 6 1 27 0 48 -2 55 17 96 49 103
14 3 41 10 59 16 18 5 42 8 53 5 10 -3 21 -2 24 3 2 4 16 5 30 3 13 -3 22 -10
19 -15 -3 -5 -12 -7 -19 -4 -7 2 -22 -2 -34 -10 -19 -13 -21 -13 -21 0 0 21
-29 10 -58 -23 -22 -25 -23 -25 -17 -3 8 29 -6 28 -39 -3 -27 -25 -33 -49 -16
-60 7 -4 7 -13 0 -26 -9 -15 -7 -21 5 -25 8 -3 15 -13 15 -22 0 -13 3 -12 20
3 18 17 20 17 20 1 0 -14 3 -15 21 -5 15 8 19 8 15 0 -4 -6 -1 -11 8 -11 8 0
25 21 38 46 12 25 24 41 26 36 2 -6 -4 -24 -12 -41 -18 -33 -2 -57 19 -28 10
14 12 14 22 -1 9 -14 13 -11 32 23 16 30 20 33 15 14 -7 -32 10 -46 33 -27 10
7 14 8 10 1 -11 -18 17 -22 30 -4 11 14 12 14 13 -1 0 -24 16 -23 33 2 13 18
15 19 21 5 4 -10 11 -13 18 -8 22 13 68 12 68 -3 0 -25 29 -3 35 27 4 16 11
29 15 29 5 0 7 -7 4 -15 -4 -8 -3 -22 0 -31 6 -15 8 -15 25 0 15 13 20 14 24
4 4 -10 10 -8 21 6 9 11 16 14 16 8 0 -7 9 -12 20 -12 11 0 20 6 20 13 0 9 3
8 9 -2 5 -8 16 -11 30 -6 11 3 21 2 21 -3 0 -6 9 -8 19 -5 16 4 19 1 14 -15
-6 -26 13 -38 25 -15 12 22 6 64 -16 127 -29 84 -76 105 -256 112 -61 3 -116
7 -123 9 -6 2 -13 2 -15 1z m33 -36 c10 0 19 -4 19 -10 0 -5 -10 -10 -23 -10
-12 0 -33 -7 -45 -16 -16 -11 -22 -12 -20 -3 4 19 -53 21 -74 2 -10 -9 -18
-11 -18 -5 0 6 -2 17 -5 25 -5 11 6 14 52 16 31 1 59 4 62 7 3 2 11 2 19 -1 7
-3 22 -5 33 -5z m56 -6 c-3 -3 -12 -4 -19 -1 -8 3 -5 6 6 6 11 1 17 -2 13 -5z
m93 -3 c0 -17 -22 -24 -30 -11 -4 7 -13 9 -19 6 -6 -4 -11 -2 -11 3 0 6 14 11
30 11 17 0 30 -4 30 -9z m113 -12 c35 -9 77 -52 64 -66 -7 -6 -38 22 -37 34 0
4 -15 9 -35 11 -23 2 -35 -1 -36 -10 0 -7 -4 -4 -8 7 -5 11 -14 20 -21 20 -7
0 -15 5 -17 12 -5 13 20 11 90 -8z"/>
<path d="M3105 1379 c-27 -3 -97 -7 -155 -8 -303 -7 -320 -14 -326 -118 -3
-61 4 -54 25 24 8 27 19 44 32 48 30 10 32 1 7 -26 -13 -14 -23 -31 -22 -39 0
-8 -4 -24 -9 -34 -8 -16 -6 -18 12 -13 11 3 20 2 19 -2 -2 -17 4 -19 31 -11
21 6 31 5 34 -3 3 -9 7 -9 18 0 15 12 47 12 88 -2 19 -6 28 -2 43 16 l19 24
-6 -22 c-5 -17 -2 -23 10 -23 8 0 18 7 21 15 4 8 10 15 16 15 5 0 6 -4 3 -10
-10 -17 17 -11 37 7 19 17 19 16 13 -10 -6 -22 -4 -27 10 -27 10 0 24 8 31 18
8 10 13 12 14 5 0 -21 26 -15 44 10 l16 22 -6 -27 c-8 -36 21 -39 37 -4 8 17
19 23 40 22 16 -1 29 -7 29 -13 0 -17 10 -16 32 4 11 9 18 11 18 5 0 -20 28
-13 35 9 6 19 7 20 20 2 11 -14 16 -15 26 -6 9 9 17 9 32 1 24 -12 39 6 34 40
-2 12 0 22 4 22 8 0 13 -29 11 -52 -1 -3 5 -9 13 -12 35 -13 3 118 -35 143
-23 16 -220 22 -315 10z m135 -28 c0 -16 -14 -20 -27 -10 -10 9 -18 8 -31 -3
-9 -9 -23 -13 -30 -11 -8 3 -27 -8 -44 -23 l-30 -29 16 33 c9 17 13 33 9 33
-5 1 6 4 22 8 41 9 115 10 115 2z m100 5 c0 -2 -7 -9 -15 -16 -13 -11 -14 -10
-9 4 5 14 24 23 24 12z m-425 -24 c-8 -9 -85 -10 -85 -1 0 4 15 9 33 11 35 4
61 -1 52 -10z m105 8 c0 -5 -5 -10 -11 -10 -5 0 -7 5 -4 10 3 6 8 10 11 10 2
0 4 -4 4 -10z m395 0 c3 -5 1 -10 -4 -10 -6 0 -11 5 -11 10 0 6 2 10 4 10 3 0
8 -4 11 -10z m-605 -8 c0 -4 -20 -8 -46 -8 -27 -1 -40 2 -32 7 17 11 78 12 78
1z m160 4 c0 -2 -7 -9 -15 -16 -13 -11 -14 -10 -9 4 5 14 24 23 24 12z"/>
<path d="M2148 1374 c-2 -1 -66 -5 -143 -8 -77 -3 -165 -9 -195 -12 -61 -7
-119 -30 -121 -48 -5 -53 -5 -95 2 -111 6 -16 8 -13 8 13 1 37 21 45 21 8 0
-28 15 -42 26 -25 4 8 9 7 15 -2 8 -11 15 -7 35 16 15 17 22 21 16 9 -14 -27
1 -52 21 -36 7 7 17 9 20 5 4 -3 15 2 26 11 15 13 20 14 24 4 4 -10 9 -9 20 5
15 18 33 24 22 8 -10 -17 13 -22 28 -6 13 13 16 13 21 -1 5 -13 9 -14 21 -4 8
7 15 8 15 3 0 -6 13 -10 29 -11 23 0 35 7 51 31 17 26 20 28 15 8 -7 -21 -5
-23 19 -19 14 3 27 1 29 -5 1 -5 11 -2 21 8 13 13 17 14 16 4 -4 -27 0 -40 11
-33 6 3 15 0 20 -7 8 -11 13 -10 28 8 16 19 20 20 25 7 4 -10 11 -12 23 -6 28
13 83 6 104 -14 29 -26 33 -11 19 58 -25 119 -42 133 -165 137 -38 1 -82 4
-97 5 -15 2 -29 2 -30 0z m-67 -47 c-10 -9 -11 -8 -5 6 3 10 9 15 12 12 3 -3
0 -11 -7 -18z m43 8 c-4 -8 -11 -12 -16 -9 -6 4 -5 10 3 15 19 12 19 11 13 -6z
m39 -2 c-3 -7 -6 -13 -8 -13 -2 0 -5 6 -8 13 -3 8 1 14 8 14 7 0 11 -6 8 -14z
m-223 -8 c-7 -9 -19 -14 -25 -11 -7 2 -18 -1 -24 -7 -8 -8 -11 -7 -11 5 0 10
10 18 28 21 15 2 31 5 36 6 5 0 3 -6 -4 -14z m320 11 c0 -3 -4 -8 -10 -11 -5
-3 -10 -1 -10 4 0 6 5 11 10 11 6 0 10 -2 10 -4z m127 -24 c7 -9 12 -24 13
-32 0 -13 -2 -13 -9 -1 -5 8 -21 15 -37 17 -15 2 -30 8 -34 15 -4 6 -13 8 -19
5 -12 -8 -15 6 -4 18 12 12 76 -4 90 -22z m-527 14 c0 -11 -19 -15 -25 -6 -3
5 1 10 9 10 9 0 16 -2 16 -4z m-123 -27 c-9 -6 -17 -17 -17 -26 0 -14 -2 -15
-12 -4 -11 10 -8 16 11 32 13 11 27 17 30 14 3 -4 -2 -11 -12 -16z"/>
</g>
</svg>
